
<svg version="1.1" id="Layer_1" xmlns="http://www.w3.org/2000/svg" xmlns:xlink="http://www.w3.org/1999/xlink" x="0px" y="0px"
	 viewBox="0 0 375 252.5" enable-background="new 0 0 375 252.5" xml:space="preserve">
<text transform="matrix(1 0 0 1 197.8018 26.292)" fill="#FFFFFF" font-family="'Open Sans'" font-weight="300" font-size="20px">Sense of purpose</text>
<text transform="matrix(1 0 0 1 198.8018 65.251)" opacity="0.5" fill="#FFFFFF" enable-background="new    " font-family="'Open Sans'" font-weight="300" font-size="14px">LOW</text>
<text transform="matrix(1 0 0 1 333.4776 65.251)" opacity="0.75" fill="#FFFFFF" enable-background="new    " font-family="'Open Sans'" font-weight="300" font-size="14px">HIGH</text>
<text transform="matrix(1 0 0 1 197.8018 116.292)" fill="#FFFFFF" font-family="'Open Sans'" font-weight="300" font-size="20px">Stressful events</text>
<g opacity="0.75">
	<text transform="matrix(1 0 0 1 337.1003 154.2511)" fill="#FFFFFF" font-family="'Open Sans'" font-weight="300" font-size="14px">LESS</text>
</g>
<g opacity="0.5">
	<text transform="matrix(1 0 0 1 199.2734 154.2511)" fill="#FFFFFF" font-family="'Open Sans'" font-weight="300" font-size="14px">MORE</text>
</g>
<text transform="matrix(1 0 0 1 197.8018 205.292)" fill="#FFFFFF" font-family="'Open Sans'" font-weight="300" font-size="20px">Feelings</text>
<text transform="matrix(1 0 0 1 198.8018 243.2511)" opacity="0.5" fill="#FFFFFF" enable-background="new    " font-family="'Open Sans'" font-weight="300" font-size="14px">NEGATIVE</text>
<text transform="matrix(1 0 0 1 310.5567 243.2511)" opacity="0.75" fill="#FFFFFF" enable-background="new    " font-family="'Open Sans'" font-weight="300" font-size="14px">POSITIVE</text>
<g>
	<rect x="251.4" y="37.9" opacity="0.5" fill="#FFFFFF" enable-background="new    " width="118" height="5"/>
	
		<linearGradient id="SVGID_1_" gradientUnits="userSpaceOnUse" x1="375.1647" y1="659.8746" x2="427.4247" y2="659.8746" gradientTransform="matrix(-1 0 0 1 626.5347 -619.4346)">
		<stop  offset="0" style="stop-color:#FFFFFF;stop-opacity:0.5"/>
		<stop  offset="0.7066" style="stop-color:#D43D51"/>
	</linearGradient>
	<polygon fill="url(#SVGID_1_)" points="199.1,37.9 251.4,37.9 251.4,43 199.1,43 	"/>
</g>
<g>
	<rect x="251.4" y="127.4" opacity="0.5" fill="#FFFFFF" enable-background="new    " width="118" height="5"/>
	
		<linearGradient id="SVGID_2_" gradientUnits="userSpaceOnUse" x1="375.1647" y1="656.4855" x2="427.4247" y2="656.4855" gradientTransform="matrix(-1 0 0 1 626.5347 -526.5455)">
		<stop  offset="0" style="stop-color:#FFFFFF;stop-opacity:0.5"/>
		<stop  offset="0.7066" style="stop-color:#D43D51"/>
	</linearGradient>
	<polygon fill="url(#SVGID_2_)" points="199.1,127.4 251.4,127.4 251.4,132.5 199.1,132.5 	"/>
</g>
<g>
	
		<linearGradient id="SVGID_3_" gradientUnits="userSpaceOnUse" x1="378.4772" y1="140.0237" x2="430.7472" y2="140.0237" gradientTransform="matrix(1 0 0 -1 -118.0272 359.4637)">
		<stop  offset="0" style="stop-color:#FCF1F2;stop-opacity:0.5262"/>
		<stop  offset="4.520000e-02" style="stop-color:#F7D9DD;stop-opacity:0.5691"/>
		<stop  offset="0.1604" style="stop-color:#EAA2AB;stop-opacity:0.6784"/>
		<stop  offset="0.2674" style="stop-color:#E17684;stop-opacity:0.7799"/>
		<stop  offset="0.3629" style="stop-color:#DA5768;stop-opacity:0.8706"/>
		<stop  offset="0.4434" style="stop-color:#D64457;stop-opacity:0.947"/>
		<stop  offset="0.4993" style="stop-color:#D43D51"/>
		<stop  offset="0.5541" style="stop-color:#D64659;stop-opacity:0.9481"/>
		<stop  offset="0.6419" style="stop-color:#DB5D6E;stop-opacity:0.865"/>
		<stop  offset="0.7517" style="stop-color:#E48390;stop-opacity:0.7611"/>
		<stop  offset="0.878" style="stop-color:#EFB8BF;stop-opacity:0.6416"/>
		<stop  offset="1" style="stop-color:#FCF1F2;stop-opacity:0.5262"/>
	</linearGradient>
	<rect x="260.5" y="216.9" fill="url(#SVGID_3_)" width="52.3" height="5"/>
	<rect x="199.1" y="216.9" opacity="0.5" fill="#FFFFFF" enable-background="new    " width="61.3" height="5"/>
	<rect x="312.7" y="216.9" opacity="0.5" fill="#FFFFFF" enable-background="new    " width="56.7" height="5"/>
</g>
<image overflow="visible" enable-background="new    " width="900" height="1200" xlink:href="build/assets/sad.jpg"  transform="matrix(0.2104 0 0 0.2104 0 2.162667e-05)">
</image>
</svg>
