<?xml version="1.0" encoding="utf-8"?>
<!-- Generator: Adobe Illustrator 25.2.0, SVG Export Plug-In . SVG Version: 6.00 Build 0)  -->
<svg version="1.1" id="Layer_1" xmlns="http://www.w3.org/2000/svg" xmlns:xlink="http://www.w3.org/1999/xlink" x="0px" y="0px"
	 viewBox="0 0 375 1432.9" enable-background="new 0 0 375 1432.9" xml:space="preserve">
<g id="images">
	
		<image overflow="visible" enable-background="new    " width="500" height="667" xlink:href="build/assets/neutral.jpg"  transform="matrix(0.253 0 0 0.253 10.0495 102.0059)">
	</image>
	
		<image overflow="visible" enable-background="new    " width="500" height="667" xlink:href="build/assets/neutral.jpg"  transform="matrix(0.253 0 0 0.253 227.7846 551.8907)">
	</image>
	
		<image overflow="visible" enable-background="new    " width="900" height="1200" xlink:href="build/assets/happy.gif"  transform="matrix(0.1406 0 0 0.1406 141.3972 102.0059)">
	</image>
	
		<image overflow="visible" enable-background="new    " width="500" height="667" xlink:href="build/assets/ok.jpg"  transform="matrix(0.253 0 0 0.253 9.9972 274.4457)">
	</image>
	
		<image overflow="visible" enable-background="new    " width="500" height="667" xlink:href="build/assets/ok.jpg"  transform="matrix(0.253 0 0 0.253 141.2067 274.4457)">
	</image>
	
		<image overflow="visible" enable-background="new    " width="500" height="667" xlink:href="build/assets/ok.jpg"  transform="matrix(0.253 0 0 0.253 96.437 551.8907)">
	</image>
	
		<image overflow="visible" enable-background="new    " width="500" height="667" xlink:href="build/assets/angry.jpg"  transform="matrix(0.253 0 0 0.253 96.437 726.6519)">
	</image>
	
		<image overflow="visible" enable-background="new    " width="900" height="1200" xlink:href="build/assets/sad.gif"  transform="matrix(0.1406 0 0 0.1406 227.7846 726.6519)">
	</image>
	
		<image overflow="visible" enable-background="new    " width="500" height="667" xlink:href="build/assets/neutral.jpg"  transform="matrix(0.253 0 0 0.253 192.7214 1061.0941)">
	</image>
	
		<image overflow="visible" enable-background="new    " width="500" height="667" xlink:href="build/assets/angry.jpg"  transform="matrix(0.253 0 0 0.253 61.3738 1061.0941)">
	</image>
	
		<image overflow="visible" enable-background="new    " width="500" height="667" xlink:href="build/assets/ok.jpg"  transform="matrix(0.253 0 0 0.253 61.3738 1237.0009)">
	</image>
	
		<image overflow="visible" enable-background="new    " width="500" height="667" xlink:href="build/assets/ok.jpg"  transform="matrix(0.253 0 0 0.253 192.7214 1237.0009)">
	</image>
	
		<text transform="matrix(1 0 0 1 15.805 117.065)" opacity="0.8" fill="#19202B" enable-background="new    " font-family="'Open Sans'" font-weight="300" font-size="14px">8am</text>
	
		<text transform="matrix(1 0 0 1 147.2054 117.065)" opacity="0.8" fill="#19202B" enable-background="new    " font-family="'Open Sans'" font-weight="300" font-size="14px">9am</text>
	
		<text transform="matrix(1 0 0 1 14.956 288.7534)" opacity="0.8" fill="#19202B" enable-background="new    " font-family="'Open Sans'" font-weight="300" font-size="14px">10am</text>
	
		<text transform="matrix(1 0 0 1 146.3559 288.7534)" opacity="0.8" fill="#19202B" enable-background="new    " font-family="'Open Sans'" font-weight="300" font-size="14px">11am</text>
	
		<text transform="matrix(1 0 0 1 101.2043 565.5085)" opacity="0.8" fill="#19202B" enable-background="new    " font-family="'Open Sans'" font-weight="300" font-size="14px">12pm</text>
	
		<text transform="matrix(1 0 0 1 101.2043 740.4534)" opacity="0.8" fill="#19202B" enable-background="new    " font-family="'Open Sans'" font-weight="300" font-size="14px">2pm</text>
	
		<text transform="matrix(1 0 0 1 232.7096 742.2697)" opacity="0.8" fill="#19202B" enable-background="new    " font-family="'Open Sans'" font-weight="300" font-size="14px">3pm</text>
	
		<text transform="matrix(1 0 0 1 66.1411 1077.2012)" opacity="0.8" fill="#19202B" enable-background="new    " font-family="'Open Sans'" font-weight="300" font-size="14px">4pm</text>
	
		<text transform="matrix(1 0 0 1 66.2465 1253.1079)" opacity="0.8" fill="#19202B" enable-background="new    " font-family="'Open Sans'" font-weight="300" font-size="14px">6pm</text>
	
		<text transform="matrix(1 0 0 1 197.6464 1253.1079)" opacity="0.8" fill="#19202B" enable-background="new    " font-family="'Open Sans'" font-weight="300" font-size="14px">7pm</text>
	
		<text transform="matrix(1 0 0 1 232.6047 565.0471)" opacity="0.8" fill="#19202B" enable-background="new    " font-family="'Open Sans'" font-weight="300" font-size="14px">1pm</text>
	
		<text transform="matrix(1 0 0 1 197.5415 1076.7402)" opacity="0.8" fill="#19202B" enable-background="new    " font-family="'Open Sans'" font-weight="300" font-size="14px">5pm</text>
</g>
<g id="time">
	<g>
		<text transform="matrix(1 0 0 1 146.2049 77.8905)" fill="#FFFFFF" font-family="'Open Sans'" font-weight="300" font-size="18px">8am - 12pm</text>
		<g opacity="0.5">
			<path fill="#FFFFFF" d="M195.7,55.5c0-3.8-3.1-6.8-6.8-6.8s-6.8,3.1-6.8,6.8 M184,55.5c0-2.7,2.2-4.8,4.8-4.8s4.8,2.2,4.8,4.8"/>
			<path fill="#FFFFFF" d="M188.8,46.1c0.6,0,1-0.5,1-1v-4.4c0-0.6-0.5-1-1-1s-1,0.5-1,1v4.3C187.8,45.6,188.2,46.1,188.8,46.1z"/>
			<path fill="#FFFFFF" d="M180.7,48.9c0.2,0.2,0.5,0.3,0.7,0.3s0.5-0.1,0.7-0.3c0.4-0.4,0.4-1,0-1.4l-3.1-3.1c-0.4-0.4-1-0.4-1.4,0
				s-0.4,1,0,1.4L180.7,48.9z"/>
			<path fill="#FFFFFF" d="M204.5,55.5c0-0.6-0.5-1-1-1H174c-0.6,0-1,0.5-1,1s0.5,1,1,1h29.5C204.1,56.5,204.5,56.1,204.5,55.5z"/>
			<path fill="#FFFFFF" d="M196.2,49.2c0.3,0,0.5-0.1,0.7-0.3l3.1-3.1c0.4-0.4,0.4-1,0-1.4s-1-0.4-1.4,0l-3.1,3.1
				c-0.4,0.4-0.4,1,0,1.4C195.7,49.1,195.9,49.2,196.2,49.2z"/>
		</g>
	</g>
	<g>
		<text transform="matrix(1 0 0 1 137.7142 526.5532)" fill="#FFFFFF" font-family="'Open Sans'" font-weight="300" font-size="18px">12pm - 4pm</text>
		<g opacity="0.5">
			<path fill="#FFFFFF" d="M184.9,485.8c-3.1,0-5.7,2.5-5.7,5.7c0,3.1,2.6,5.7,5.7,5.7s5.7-2.6,5.7-5.7S188.1,485.8,184.9,485.8z
				 M184.9,495.6c-2.2,0-4-1.8-4-4c0-2.2,1.8-4,4-4c2.2,0,4,1.8,4,4C189,493.8,187.2,495.6,184.9,495.6z"/>
			<path fill="#FFFFFF" d="M184.9,483.7c0.5,0,0.8-0.4,0.8-0.8v-3.7c0-0.5-0.4-0.8-0.8-0.8s-0.8,0.4-0.8,0.8v3.6
				C184.1,483.3,184.5,483.7,184.9,483.7z"/>
			<path fill="#FFFFFF" d="M178.2,486c0.2,0.2,0.4,0.2,0.6,0.2s0.4-0.1,0.6-0.2c0.3-0.3,0.3-0.9,0-1.2l-2.6-2.6
				c-0.3-0.3-0.9-0.3-1.2,0s-0.3,0.9,0,1.2L178.2,486z"/>
			<path fill="#FFFFFF" d="M177.1,491.5c0-0.5-0.4-0.8-0.8-0.8h-3.7c-0.5,0-0.8,0.4-0.8,0.8c0,0.4,0.4,0.8,0.8,0.8h3.6
				C176.7,492.4,177.1,492,177.1,491.5z"/>
			<path fill="#FFFFFF" d="M178.2,497.1l-2.6,2.6c-0.3,0.3-0.3,0.9,0,1.2c0.2,0.2,0.4,0.2,0.6,0.2s0.4-0.1,0.6-0.2l2.6-2.6
				c0.3-0.3,0.3-0.9,0-1.2C179.1,496.8,178.5,496.8,178.2,497.1z"/>
			<path fill="#FFFFFF" d="M184.9,499.4c-0.5,0-0.8,0.4-0.8,0.8v3.6c0,0.5,0.4,0.8,0.8,0.8s0.8-0.4,0.8-0.8v-3.6
				C185.8,499.8,185.4,499.4,184.9,499.4z"/>
			<path fill="#FFFFFF" d="M191.7,497.1c-0.3-0.3-0.9-0.3-1.2,0s-0.3,0.9,0,1.2l2.6,2.6c0.2,0.2,0.4,0.2,0.6,0.2s0.4-0.1,0.6-0.2
				c0.3-0.3,0.3-0.9,0-1.2L191.7,497.1z"/>
			<path fill="#FFFFFF" d="M197.3,490.7h-3.6c-0.5,0-0.8,0.4-0.8,0.8c0,0.4,0.4,0.8,0.8,0.8h3.6c0.5,0,0.8-0.4,0.8-0.8
				C198.1,491.1,197.8,490.7,197.3,490.7z"/>
			<path fill="#FFFFFF" d="M191.1,486.2c0.2,0,0.4-0.1,0.6-0.2l2.6-2.6c0.3-0.3,0.3-0.9,0-1.2c-0.3-0.3-0.9-0.3-1.2,0l-2.6,2.6
				c-0.3,0.3-0.3,0.9,0,1.2C190.7,486.2,190.9,486.2,191.1,486.2z"/>
		</g>
	</g>
	<g>
		<text transform="matrix(1 0 0 1 150.9433 1038.571)" fill="#FFFFFF" font-family="'Open Sans'" font-weight="300" font-size="18px">4pm -8pm</text>
		<g opacity="0.5">
			<path fill="#FFFFFF" d="M190.6,996.6c-0.3,0.1-0.5,0.1-0.8,0.2c-0.6,0.2-1.3,0.5-1.9,0.8c0,0-0.1,0-0.1,0
				c-2.3,1.3-3.8,3.4-4.4,5.8c-0.6,2.3-0.4,5,0.9,7.2c0,0,0,0,0,0.1c1.3,2.3,3.4,3.8,5.8,4.4c2.4,0.6,5,0.4,7.3-1
				c0.7-0.4,1.2-0.8,1.8-1.3c0.2-0.2,0.4-0.4,0.6-0.6c-1.6-0.1-3.2-0.5-4.6-1.2c-1.8-0.9-3.3-2.3-4.3-4.2c-1.1-1.8-1.5-3.9-1.4-5.8
				C189.4,999.5,189.8,998,190.6,996.6z M189.4,995.6c0.7-0.2,1.5-0.4,2.3-0.4c0.1,0,0.3,0,0.4,0.1c0.3,0.2,0.4,0.6,0.2,0.8
				c-1.1,1.5-1.6,3.3-1.7,5.1c-0.1,1.8,0.3,3.6,1.3,5.2s2.3,2.9,3.9,3.7c1.6,0.8,3.4,1.2,5.3,1.1c0.1,0,0.3,0,0.4,0.1
				c0.3,0.2,0.4,0.6,0.2,0.8c-0.4,0.7-0.9,1.3-1.5,1.8c-0.6,0.5-1.2,1-1.9,1.4c-2.6,1.5-5.5,1.8-8.2,1.1c-2.7-0.7-5.1-2.5-6.6-5v0
				c-1.5-2.6-1.8-5.5-1.1-8.2c0.7-2.7,2.4-5.1,5-6.6l0,0C187.9,996.2,188.7,995.8,189.4,995.6z"/>
		</g>
	</g>
</g>
<g id="annotation-1">
	<g>
		<g>
			<path fill="none" stroke="#FFFFFF" stroke-miterlimit="10" d="M245.4,130c19.4-15.3,48.7-20.1,63.9-3.4"/>
			<g>
				<polygon fill="#FFFFFF" points="253.1,131.9 253.2,130.4 245.9,129.7 247.2,122.4 245.7,122.1 244.1,131 				"/>
			</g>
		</g>
	</g>
	<text transform="matrix(1 0 0 1 276.4683 148.4956)" enable-background="new    "><tspan x="0" y="0" fill="#FFFFFF" font-family="'Open Sans'" font-weight="300" font-size="18px">Pancakes</tspan><tspan x="0" y="22" fill="#FFFFFF" font-family="'Open Sans'" font-weight="300" font-size="18px">with  </tspan><tspan x="0" y="44" fill="#FFFFFF" font-family="'Open Sans'" font-weight="700" font-size="18px">rainbow </tspan><tspan x="0" y="66" fill="#FFFFFF" font-family="'Open Sans'" font-weight="300" font-size="18px">sprinkles  </tspan><tspan x="0" y="88" fill="#FFFFFF" font-family="'Open Sans'" font-weight="300" font-size="18px">for </tspan><tspan x="0" y="110" fill="#FFFFFF" font-family="'Open Sans'" font-weight="300" font-size="18px">breakfast.</tspan></text>
</g>
<g id="annotation-2">
	<g>
		<g>
			<path fill="none" stroke="#FFFFFF" stroke-miterlimit="10" d="M251,884.3c-11.6,42.9-62.4,54.8-130.2,39.5"/>
			<g>
				<polygon fill="#FFFFFF" points="243.6,887.4 244.4,888.7 250.7,884.9 254,891.5 255.4,890.8 251.4,882.8 				"/>
			</g>
		</g>
	</g>
	<text transform="matrix(1 0 0 1 50.4498 921.8492)" enable-background="new    "><tspan x="0" y="0" fill="#FFFFFF" font-family="'Open Sans'" font-weight="700" font-size="18px">Lonely</tspan><tspan x="0" y="22" fill="#FFFFFF" font-family="'Open Sans'" font-weight="300" font-size="18px">afternoon</tspan><tspan x="0" y="44" fill="#FFFFFF" font-family="'Open Sans'" font-weight="300" font-size="18px">studying.</tspan></text>
</g>
</svg>
