<?xml version="1.0" encoding="utf-8"?>
<!-- Generator: Adobe Illustrator 25.2.0, SVG Export Plug-In . SVG Version: 6.00 Build 0)  -->
<svg version="1.1" id="Layer_1" xmlns="http://www.w3.org/2000/svg" xmlns:xlink="http://www.w3.org/1999/xlink" x="0px" y="0px"
	 viewBox="0 0 700 600" enable-background="new 0 0 700 600" xml:space="preserve">
<g id="images">
	
		<image overflow="visible" width="500" height="667" xlink:href="build/assets/neutral.jpg"  transform="matrix(0.253 0 0 0.253 64.426 86.8589)">
	</image>
	
		<image overflow="visible" width="500" height="667" xlink:href="build/assets/neutral.jpg"  transform="matrix(0.253 0 0 0.253 195.7214 259.2987)">
	</image>
	
		<image overflow="visible" width="900" height="1200" xlink:href="build/assets/happy.gif"  transform="matrix(0.1406 0 0 0.1406 195.7737 86.8589)">
	</image>
	<image overflow="visible" width="500" height="667" xlink:href="build/assets/ok.jpg"  transform="matrix(0.253 0 0 0.253 326.9832 86.8589)">
	</image>
	<image overflow="visible" width="500" height="667" xlink:href="build/assets/ok.jpg"  transform="matrix(0.253 0 0 0.253 458.1926 86.8589)">
	</image>
	<image overflow="visible" width="500" height="667" xlink:href="build/assets/ok.jpg"  transform="matrix(0.253 0 0 0.253 64.3738 259.2987)">
	</image>
	
		<image overflow="visible" width="500" height="667" xlink:href="build/assets/angry.jpg"  transform="matrix(0.253 0 0 0.253 327.0691 259.2987)">
	</image>
	
		<image overflow="visible" width="900" height="1200" xlink:href="build/assets/sad.jpg"  transform="matrix(0.1406 0 0 0.1406 458.4168 259.2987)">
	</image>
	
		<image overflow="visible" width="500" height="667" xlink:href="build/assets/neutral.jpg"  transform="matrix(0.253 0 0 0.253 195.7214 431.7386)">
	</image>
	
		<image overflow="visible" width="500" height="667" xlink:href="build/assets/angry.jpg"  transform="matrix(0.253 0 0 0.253 64.3738 431.7386)">
	</image>
	<image overflow="visible" width="500" height="667" xlink:href="build/assets/ok.jpg"  transform="matrix(0.253 0 0 0.253 327.0691 431.7386)">
	</image>
	<image overflow="visible" width="500" height="667" xlink:href="build/assets/ok.jpg"  transform="matrix(0.253 0 0 0.253 458.4168 431.7386)">
	</image>
	
		<text transform="matrix(1 0 0 1 69.1411 100.1665)" opacity="0.8" fill="#19202B" font-family="'Open Sans'" font-weight="300" font-size="12px">8am</text>
	
		<text transform="matrix(1 0 0 1 200.5415 100.1665)" opacity="0.8" fill="#19202B" font-family="'Open Sans'" font-weight="300" font-size="12px">9am</text>
	
		<text transform="matrix(1 0 0 1 331.9419 100.1665)" opacity="0.8" fill="#19202B" font-family="'Open Sans'" font-weight="300" font-size="12px">10am</text>
	
		<text transform="matrix(1 0 0 1 463.3418 100.1665)" opacity="0.8" fill="#19202B" font-family="'Open Sans'" font-weight="300" font-size="12px">11am</text>
	
		<text transform="matrix(1 0 0 1 69.1411 273.9165)" opacity="0.8" fill="#19202B" font-family="'Open Sans'" font-weight="300" font-size="12px">12pm</text>
	
		<text transform="matrix(1 0 0 1 331.9419 273.9165)" opacity="0.8" fill="#19202B" font-family="'Open Sans'" font-weight="300" font-size="12px">2pm</text>
	
		<text transform="matrix(1 0 0 1 463.3418 273.9165)" opacity="0.8" fill="#19202B" font-family="'Open Sans'" font-weight="300" font-size="12px">3pm</text>
	
		<text transform="matrix(1 0 0 1 69.1411 446.8457)" opacity="0.8" fill="#19202B" font-family="'Open Sans'" font-weight="300" font-size="12px">4pm</text>
	
		<text transform="matrix(1 0 0 1 331.9419 446.8457)" opacity="0.8" fill="#19202B" font-family="'Open Sans'" font-weight="300" font-size="12px">6pm</text>
	
		<text transform="matrix(1 0 0 1 463.3418 446.8457)" opacity="0.8" fill="#19202B" font-family="'Open Sans'" font-weight="300" font-size="12px">7pm</text>
	
		<text transform="matrix(1 0 0 1 200.5415 273.4551)" opacity="0.8" fill="#19202B" font-family="'Open Sans'" font-weight="300" font-size="12px">1pm</text>
	
		<text transform="matrix(1 0 0 1 200.5415 446.3848)" opacity="0.8" fill="#19202B" font-family="'Open Sans'" font-weight="300" font-size="12px">5pm</text>
</g>
<g id="time">
	<g>
		<text transform="matrix(1 0 0 1 6.2725 126.7334)"><tspan x="0" y="0" fill="#FFFFFF" font-family="'Open Sans'" font-weight="300" font-size="15px">8am - </tspan><tspan x="0" y="18" fill="#FFFFFF" font-family="'Open Sans'" font-weight="300" font-size="15px">12pm</tspan></text>
		<g>
			<path fill="#FFFFFF" d="M32.95,105.33c0-3.75-3.09-6.84-6.84-6.84s-6.84,3.06-6.84,6.84 M21.29,105.33
				c0-2.66,2.16-4.82,4.82-4.82s4.82,2.16,4.82,4.82"/>
			<path fill="#FFFFFF" d="M26.11,95.93c0.56,0,1-0.47,1-1v-4.39c0-0.56-0.47-1-1-1s-1,0.47-1,1v4.35
				C25.11,95.47,25.54,95.93,26.11,95.93z"/>
			<path fill="#FFFFFF" d="M18.03,98.69c0.2,0.2,0.47,0.3,0.7,0.3c0.23,0,0.53-0.1,0.7-0.3c0.4-0.4,0.4-1.03,0-1.43l-3.09-3.09
				c-0.4-0.4-1.03-0.4-1.43,0c-0.4,0.4-0.4,1.03,0,1.43L18.03,98.69z"/>
			<path fill="#FFFFFF" d="M41.83,105.33c0-0.56-0.47-1-1-1H11.32c-0.56,0-1,0.47-1,1c0,0.53,0.47,1,1,1H40.8
				C41.36,106.33,41.83,105.9,41.83,105.33z"/>
			<path fill="#FFFFFF" d="M33.48,98.99c0.27,0,0.53-0.1,0.7-0.3l3.09-3.09c0.4-0.4,0.4-1.03,0-1.43s-1.03-0.4-1.43,0l-3.09,3.09
				c-0.4,0.4-0.4,1.03,0,1.43C32.95,98.89,33.22,98.99,33.48,98.99z"/>
		</g>
	</g>
	<g>
		<text transform="matrix(1 0 0 1 6.2725 319.1953)"><tspan x="0" y="0" fill="#FFFFFF" font-family="'Open Sans'" font-weight="300" font-size="15px">12pm - </tspan><tspan x="0" y="18" fill="#FFFFFF" font-family="'Open Sans'" font-weight="300" font-size="15px">4pm</tspan></text>
		<g>
			<path fill="#FFFFFF" d="M23.19,277.46c-3.14,0-5.72,2.55-5.72,5.72c0,3.14,2.55,5.72,5.72,5.72s5.72-2.58,5.72-5.72
				S26.32,277.46,23.19,277.46z M23.19,287.2c-2.22,0-4.03-1.8-4.03-4.03c0-2.22,1.8-4.03,4.03-4.03s4.03,1.8,4.03,4.03
				C27.21,285.4,25.41,287.2,23.19,287.2z"/>
			<path fill="#FFFFFF" d="M23.19,275.32c0.47,0,0.83-0.39,0.83-0.83v-3.67c0-0.47-0.39-0.83-0.83-0.83c-0.44,0-0.83,0.39-0.83,0.83
				v3.64C22.35,274.93,22.71,275.32,23.19,275.32z"/>
			<path fill="#FFFFFF" d="M16.44,277.62c0.17,0.17,0.39,0.25,0.58,0.25s0.44-0.08,0.58-0.25c0.33-0.33,0.33-0.86,0-1.19l-2.58-2.58
				c-0.33-0.33-0.86-0.33-1.19,0c-0.33,0.33-0.33,0.86,0,1.19L16.44,277.62z"/>
			<path fill="#FFFFFF" d="M15.33,283.18c0-0.47-0.39-0.83-0.83-0.83h-3.67c-0.47,0-0.83,0.39-0.83,0.83s0.39,0.83,0.83,0.83h3.64
				C14.94,284.01,15.33,283.65,15.33,283.18z"/>
			<path fill="#FFFFFF" d="M16.44,288.73l-2.58,2.58c-0.33,0.33-0.33,0.86,0,1.19c0.17,0.17,0.39,0.25,0.58,0.25
				s0.44-0.08,0.58-0.25l2.58-2.58c0.33-0.33,0.33-0.86,0-1.19C17.3,288.4,16.77,288.4,16.44,288.73z"/>
			<path fill="#FFFFFF" d="M23.19,291.04c-0.47,0-0.83,0.39-0.83,0.83v3.64c0,0.47,0.39,0.83,0.83,0.83c0.44,0,0.83-0.39,0.83-0.83
				v-3.61C24.02,291.42,23.66,291.04,23.19,291.04z"/>
			<path fill="#FFFFFF" d="M29.93,288.73c-0.33-0.33-0.86-0.33-1.19,0c-0.33,0.33-0.33,0.86,0,1.19l2.58,2.58
				c0.17,0.17,0.39,0.25,0.58,0.25s0.44-0.08,0.58-0.25c0.33-0.33,0.33-0.86,0-1.19L29.93,288.73z"/>
			<path fill="#FFFFFF" d="M35.54,282.34h-3.64c-0.47,0-0.83,0.39-0.83,0.83s0.39,0.83,0.83,0.83h3.64c0.47,0,0.83-0.39,0.83-0.83
				S35.99,282.34,35.54,282.34z"/>
			<path fill="#FFFFFF" d="M29.35,277.87c0.22,0,0.44-0.08,0.58-0.25l2.58-2.58c0.33-0.33,0.33-0.86,0-1.19
				c-0.33-0.33-0.86-0.33-1.19,0l-2.58,2.58c-0.33,0.33-0.33,0.86,0,1.19C28.91,277.79,29.13,277.87,29.35,277.87z"/>
		</g>
	</g>
	<g>
		<text transform="matrix(1 0 0 1 6.2734 481.833)"><tspan x="0" y="0" fill="#FFFFFF" font-family="'Open Sans'" font-weight="300" font-size="15px">4pm -</tspan><tspan x="0" y="18" fill="#FFFFFF" font-family="'Open Sans'" font-weight="300" font-size="15px">8pm</tspan></text>
		<g opacity="0.5">
			<path fill="#FFFFFF" d="M23.44,442.83c-0.26,0.06-0.53,0.12-0.79,0.2c-0.65,0.2-1.28,0.48-1.91,0.84
				c-0.02,0.02-0.05,0.04-0.07,0.05c-2.28,1.33-3.8,3.44-4.43,5.81c-0.63,2.35-0.37,4.95,0.93,7.23c0.01,0.02,0.02,0.05,0.04,0.08
				c1.33,2.27,3.45,3.8,5.81,4.43c2.38,0.63,4.98,0.36,7.28-0.96c0.67-0.39,1.24-0.8,1.75-1.26c0.2-0.19,0.39-0.38,0.57-0.59
				c-1.6-0.06-3.19-0.48-4.63-1.23c-1.76-0.92-3.28-2.33-4.34-4.17s-1.53-3.87-1.45-5.84C22.27,445.81,22.69,444.25,23.44,442.83z
				 M22.3,441.87c0.74-0.23,1.51-0.37,2.28-0.43c0.13-0.01,0.27,0.01,0.39,0.1c0.27,0.19,0.35,0.57,0.16,0.85
				c-1.05,1.51-1.64,3.28-1.72,5.09c-0.07,1.76,0.33,3.56,1.28,5.2c0.94,1.64,2.31,2.88,3.86,3.69c1.61,0.85,3.44,1.22,5.27,1.06
				c0.13-0.01,0.26,0.02,0.38,0.1c0.27,0.19,0.36,0.56,0.17,0.85c-0.44,0.67-0.94,1.26-1.52,1.78c-0.57,0.51-1.21,0.97-1.95,1.4
				c-2.58,1.49-5.53,1.8-8.2,1.09s-5.07-2.45-6.56-5.03v-0.01c-1.49-2.58-1.79-5.52-1.08-8.19c0.72-2.68,2.45-5.08,5.03-6.56l0,0
				C20.83,442.43,21.56,442.11,22.3,441.87z"/>
		</g>
	</g>
</g>
<g id="annotation-1">
	<g>
		<g>
			<path fill="none" stroke="#FFFFFF" stroke-miterlimit="10" d="M297.08,104.77C328.91-1.05,517.16-32.06,608.13,85.21"/>
			<g>
				<polygon fill="#FFFFFF" points="304.45,101.87 303.71,100.57 297.29,104.23 294.1,97.55 292.75,98.2 296.63,106.33 				"/>
			</g>
		</g>
	</g>
	<text transform="matrix(1 0 0 1 595.7393 101.9116)"><tspan x="0" y="0" fill="#FFFFFF" font-family="'Open Sans'" font-weight="300" font-size="15px">Pancakes</tspan><tspan x="0" y="19" fill="#FFFFFF" font-family="'Open Sans'" font-weight="300" font-size="15px">with </tspan><tspan x="32.01" y="19" fill="#FFFFFF" font-family="'Open Sans'" font-weight="700" font-size="15px">rainbow</tspan><tspan x="0" y="38" fill="#FFFFFF" font-family="'Open Sans'" font-weight="300" font-size="15px">sprinkles for</tspan><tspan x="0" y="57" fill="#FFFFFF" font-family="'Open Sans'" font-weight="300" font-size="15px">breakfast.</tspan></text>
</g>
<g id="annotation-2">
	<g>
		<g>
			<path fill="none" stroke="#FFFFFF" stroke-miterlimit="10" d="M552.32,389.44c23.76,17.8,55.46-3.43,53.2-27.39"/>
			<g>
				<polygon fill="#FFFFFF" points="552.92,397.24 554.39,396.93 552.84,389.7 560.17,388.68 559.96,387.19 551.04,388.43 				"/>
			</g>
		</g>
	</g>
	<text transform="matrix(1 0 0 1 594.2041 314.2812)"><tspan x="0" y="0" fill="#FFFFFF" font-family="'Open Sans'" font-weight="700" font-size="15px">Lonely</tspan><tspan x="0" y="19" fill="#FFFFFF" font-family="'Open Sans'" font-weight="300" font-size="15px">afternoon</tspan><tspan x="0" y="38" fill="#FFFFFF" font-family="'Open Sans'" font-weight="300" font-size="15px">studying.</tspan></text>
</g>
</svg>
