<?xml version="1.0" encoding="utf-8"?>
<!-- Generator: Adobe Illustrator 25.2.0, SVG Export Plug-In . SVG Version: 6.00 Build 0)  -->
<svg version="1.1" id="Layer_1" xmlns="http://www.w3.org/2000/svg" xmlns:xlink="http://www.w3.org/1999/xlink" x="0px" y="0px"
	 viewBox="0 0 375 252.47" enable-background="new 0 0 375 252.47" xml:space="preserve">
<text transform="matrix(1 0 0 1 197.8018 26.292)" fill="#FFFFFF" font-family="'Open Sans'" font-weight="300" font-size="20px">Sense of purpose</text>
<text transform="matrix(1 0 0 1 198.8018 66.251)" opacity="0.5" fill="#FFFFFF" font-family="'Open Sans'" font-weight="300" font-size="11px">LOW</text>
<text transform="matrix(1 0 0 1 340.252 66.251)" opacity="0.75" fill="#FFFFFF" font-family="'Open Sans'" font-weight="300" font-size="11px">HIGH</text>
<text transform="matrix(1 0 0 1 198.106 116.292)" fill="#FFFFFF" font-family="'Open Sans'" font-weight="300" font-size="20px">Stressful events</text>
<text transform="matrix(1 0 0 1 346.0529 155.251)" opacity="0.5" fill="#FFFFFF" font-family="'Open Sans'" font-weight="300" font-size="11px">LESS</text>
<text transform="matrix(1 0 0 1 199.0815 155.251)" opacity="0.75" fill="#FFFFFF" font-family="'Open Sans'" font-weight="300" font-size="11px">MORE</text>
<text transform="matrix(1 0 0 1 197.8018 205.292)" fill="#FFFFFF" font-family="'Open Sans'" font-weight="300" font-size="20px">Feelings</text>
<text transform="matrix(1 0 0 1 198.8018 244.251)" opacity="0.5" fill="#FFFFFF" font-family="'Open Sans'" font-weight="300" font-size="11px">NEGATIVE</text>
<text transform="matrix(1 0 0 1 319.2432 244.251)" opacity="0.75" fill="#FFFFFF" font-family="'Open Sans'" font-weight="300" font-size="11px">POSITIVE</text>
<linearGradient id="SVGID_111_" gradientUnits="userSpaceOnUse" x1="317.1332" y1="220.4379" x2="369.4015" y2="220.4379">
	<stop  offset="0" style="stop-color:#FFFFFF;stop-opacity:0.5"/>
	<stop  offset="0.7066" style="stop-color:#55418A"/>
	<stop  offset="1" style="stop-color:#000000"/>
</linearGradient>
<rect x="317.13" y="217.92" fill="url(#SVGID_111_)" width="52.27" height="5.04"/>
<rect x="199.11" y="217.92" opacity="0.5" fill="#FFFFFF" width="118.02" height="5.04"/>
<linearGradient id="SVGID_222_" gradientUnits="userSpaceOnUse" x1="317.4376" y1="130.9386" x2="369.7058" y2="130.9386">
	<stop  offset="0" style="stop-color:#FFFFFF;stop-opacity:0.5"/>
	<stop  offset="0.7066" style="stop-color:#55418A"/>
	<stop  offset="1" style="stop-color:#000000"/>
</linearGradient>
<rect x="317.44" y="128.42" fill="url(#SVGID_222_)" width="52.27" height="5.04"/>
<rect x="199.41" y="128.42" opacity="0.5" fill="#FFFFFF" width="118.02" height="5.04"/>
<linearGradient id="SVGID_333_" gradientUnits="userSpaceOnUse" x1="317.1332" y1="41.4394" x2="369.4015" y2="41.4394">
	<stop  offset="0" style="stop-color:#FFFFFF;stop-opacity:0.5"/>
	<stop  offset="0.7066" style="stop-color:#55418A"/>
	<stop  offset="1" style="stop-color:#000000"/>
</linearGradient>
<rect x="317.13" y="38.92" fill="url(#SVGID_333_)" width="52.27" height="5.04"/>
<rect x="199.11" y="38.92" opacity="0.5" fill="#FFFFFF" width="118.02" height="5.04"/>
<image overflow="visible" width="900" height="1200" xlink:href="build/assets/happy.jpg"  transform="matrix(0.2104 0 0 0.2104 0 0)">
</image>
</svg>
