<?xml version="1.0" encoding="utf-8"?>
<!-- Generator: Adobe Illustrator 25.2.0, SVG Export Plug-In . SVG Version: 6.00 Build 0)  -->
<svg version="1.1" id="Layer_1" xmlns="http://www.w3.org/2000/svg" xmlns:xlink="http://www.w3.org/1999/xlink" x="0px" y="0px"
	 viewBox="0 0 375 1324" enable-background="new 0 0 375 1324" xml:space="preserve">
<g id="images">
	
		<image overflow="visible" enable-background="new    " width="900" height="1200" xlink:href="build/assets/happy.jpg"  transform="matrix(0.3532 0 0 0.3532 -11.1691 5.592163e-02)">
	</image>
	
		<image overflow="visible" enable-background="new    " width="500" height="667" xlink:href="build/assets/ok.gif"  transform="matrix(0.2728 0 0 0.2728 205.35 422.4943)">
	</image>
	
		<image overflow="visible" enable-background="new    " width="500" height="667" xlink:href="build/assets/neutral.jpg"  transform="matrix(0.2728 0 0 0.2728 238.4516 604.4244)">
	</image>
	
		<image overflow="visible" enable-background="new    " width="500" height="667" xlink:href="build/assets/angry.jpg"  transform="matrix(0.2728 0 0 0.2728 177.4314 785.2935)">
	</image>
	
		<image overflow="visible" enable-background="new    " width="900" height="1200" xlink:href="build/assets/sad.jpg"  transform="matrix(0.2972 0 0 0.2972 -0.1214 967.3117)">
	</image>
</g>
<g id="intrp-text" transform="translate(0 50)">
	<g>
		<path fill="#FFFFFF" d="M28.4,171.2c0,3.6-1,6.3-3,8.3s-4.7,2.9-8.3,2.9h-6.9v-21.4h7.4c3.4,0,6.1,0.9,8,2.6
			S28.4,167.9,28.4,171.2z M22.4,171.4c0-2-0.4-3.4-1.2-4.4s-2-1.4-3.5-1.4H16v12h1.3c1.8,0,3-0.5,3.9-1.5S22.4,173.5,22.4,171.4z"
			/>
		<path fill="#FFFFFF" d="M57.4,182.4l-1-4h-7l-1.1,4h-6.4l7-21.5h7.7l7.1,21.5H57.4z M55.1,173.6l-0.9-3.5c-0.2-0.8-0.5-1.8-0.8-3
			s-0.5-2.1-0.6-2.7c-0.1,0.5-0.3,1.3-0.5,2.5s-0.8,3.4-1.7,6.8L55.1,173.6L55.1,173.6z"/>
		<path fill="#FFFFFF" d="M87.5,182.4h-5.8v-16.7h-5.2V161h16.2v4.7h-5.2V182.4z"/>
		<path fill="#FFFFFF" d="M120.9,182.4l-1.1-4h-7l-1.1,4h-6.4l7-21.5h7.7l7.1,21.5H120.9z M118.6,173.6l-0.9-3.5
			c-0.2-0.8-0.5-1.8-0.8-3s-0.5-2.1-0.6-2.7c-0.1,0.5-0.3,1.3-0.5,2.5s-0.8,3.4-1.7,6.8L118.6,173.6L118.6,173.6z"/>
		<path fill="#FFFFFF" d="M178.3,171.4c0,3.6-0.9,6.3-2.8,8.1s-4.6,2.8-8.3,2.8H162v-21.4h5.8c3.4,0,6,0.9,7.8,2.7
			S178.3,168,178.3,171.4z M176.7,171.5c0-3.1-0.8-5.4-2.3-6.9s-3.9-2.3-6.9-2.3h-3.9V181h3.5C173.5,181,176.7,177.9,176.7,171.5z"
			/>
		<path fill="#FFFFFF" d="M205.5,174.8h-8.7l-3,7.6h-1.7l8.6-21.5h0.9l8.4,21.5h-1.7L205.5,174.8z M197.4,173.5h7.7l-2.9-7.7
			c-0.2-0.6-0.5-1.4-0.9-2.5c-0.3,0.9-0.6,1.8-0.9,2.6L197.4,173.5z"/>
		<path fill="#FFFFFF" d="M240.8,182.4h-1.5l-12.7-19h-0.1c0.1,2.3,0.2,4,0.2,5.1v13.9h-1.4V161h1.5l12.7,19h0.1
			c-0.1-1.8-0.1-3.4-0.1-5v-14h1.4L240.8,182.4L240.8,182.4z"/>
		<path fill="#FFFFFF" d="M268,162c-2.7,0-4.8,0.9-6.3,2.6s-2.3,4.1-2.3,7.1c0,3.1,0.7,5.4,2.2,7.1s3.5,2.5,6.2,2.5
			c1.8,0,3.5-0.2,5-0.7v1.3c-1.4,0.5-3.2,0.8-5.3,0.8c-3,0-5.4-1-7.1-2.9s-2.6-4.7-2.6-8.1c0-2.2,0.4-4.1,1.2-5.8s2-2.9,3.6-3.9
			s3.4-1.4,5.4-1.4c2.1,0,4,0.4,5.6,1.2l-0.6,1.4C271.4,162.4,269.7,162,268,162z"/>
		<path fill="#FFFFFF" d="M289.5,182.4v-21.4h1.5v21.4H289.5z"/>
		<path fill="#FFFFFF" d="M324.6,182.4h-1.5l-12.7-19h-0.1c0.1,2.3,0.2,4,0.2,5.1v13.9H309V161h1.5l12.7,19h0.1
			c-0.1-1.8-0.1-3.4-0.1-5v-14h1.5L324.6,182.4L324.6,182.4z"/>
		<path fill="#FFFFFF" d="M351.1,171.6h7.9v9.8c-2.1,0.9-4.4,1.3-7,1.3c-3.4,0-6-0.9-7.8-2.9s-2.7-4.6-2.7-8.1
			c0-2.2,0.5-4.1,1.3-5.8s2.2-3,3.8-3.9s3.6-1.4,5.7-1.4c2.3,0,4.4,0.4,6.3,1.3l-0.6,1.4c-1.9-0.9-3.8-1.3-5.8-1.3
			c-2.8,0-5.1,0.9-6.7,2.6s-2.5,4.1-2.5,7.1c0,3.2,0.8,5.6,2.4,7.3s3.9,2.4,6.9,2.4c2,0,3.6-0.3,5-0.8V173h-6.4L351.1,171.6
			L351.1,171.6z"/>
	</g>
</g>
<g id="dskhappy_2_">
	<path fill="#5E35B1" d="M106.8,711H31.1c-3.3,0-6-2.7-6-6v-21.5c0-3.3,2.7-6,6-6h75.6c3.3,0,6,2.7,6,6V705
		C112.8,708.3,110.1,711,106.8,711z"/>
	<path fill="#D43D51" d="M355.1,1190h-48.9c-3.3,0-6-2.7-6-6v-21.5c0-3.3,2.7-6,6-6h48.9c3.3,0,6,2.7,6,6v21.5
		C361.1,1187.3,358.4,1190,355.1,1190z"/>
	<text transform="matrix(1 0 0 1 29.9854 671.0731)" fill="#FFFFFF" font-family="'Open Sans'" font-weight="300" font-size="25px">From my </text>
	<text transform="matrix(1 0 0 1 29.9854 701.1331)" fill="#FFFFFF" font-family="'Open Sans'" font-weight="700" font-size="25px">happy </text>
	<text transform="matrix(1 0 0 1 120.2881 703.324)" fill="#FFFFFF" font-family="'Open Sans'" font-weight="300" font-size="25px">days...</text>
</g>
<g id="dsksad_2_">
	<text transform="matrix(1 0 0 1 278.7261 1146.6317)" fill="#FFFFFF" font-family="'Open Sans'" font-weight="300" font-size="25px">...to my</text>
	<text transform="matrix(1 0 0 1 303.921 1218.1265)" fill="#FFFFFF" font-family="'Open Sans'" font-weight="300" font-size="25px">days</text>
	<text transform="matrix(1 0 0 1 308.8857 1182.5225)" fill="#FFFFFF" font-family="'Open Sans'" font-weight="700" font-size="25px">sad</text>
</g>
</svg>
