<svg xmlns="http://www.w3.org/2000/svg" xmlns:xlink="http://www.w3.org/1999/xlink" viewBox="0 0 375 1367.45"><defs><image id="image" width="1246" height="2034" xlink:href="Screenshot%202021-03-09%20at%2012.17.55%20PM.png"/></defs><g id="Layer_1" data-name="Layer 1"><rect x="214.86" y="188.08" width="48.88" height="45.18" style="fill:#5e35b1"/><polygon points="332.63 279.92 215.6 279.92 214.86 234.74 331.88 234.74 332.63 279.92" style="fill:#5e35b1"/><polygon points="352.62 327.32 215.6 327.32 214.86 282.14 351.88 282.14 352.62 327.32" style="fill:#5e35b1"/><text transform="translate(223.87 226.12)" style="opacity:0.9;font-size:40px;fill:#fff;font-family:ShipporiMinchoB1-ExtraBold, Shippori Mincho B1;font-weight:800">A<tspan x="0" y="48">Data</tspan><tspan x="0" y="96">Dance</tspan></text><use transform="translate(115.68 851.38) scale(0.09)" xlink:href="#image"/><use transform="translate(0 1033.06) scale(0.16)" xlink:href="#image"/><use transform="translate(171.37 517.16) scale(0.16)" xlink:href="#image"/><use transform="scale(0.16)" xlink:href="#image"/><use transform="translate(149.04 334.22) scale(0.09)" xlink:href="#image"/><polygon points="205.22 1367.11 0 1367.45 0 1033.06 204.26 1033.06 205.22 1367.11" style="fill:#d43d51;fill-rule:evenodd;opacity:0.4"/></g><g id="appear"><rect x="15.6" y="654.82" width="103.72" height="40.93" rx="12.07" style="fill:#5e35b1"/><text transform="translate(22.68 648.04)" style="font-size:30px;fill:#fff;font-family:ShipporiMinchoB1-ExtraBold, Shippori Mincho B1;font-weight:800">From my<tspan x="0" y="36">happy </tspan><tspan x="0" y="72">days...</tspan></text><rect x="225.63" y="1208.4" width="61.56" height="36.24" rx="12.07" style="fill:#d43d51"/><text transform="translate(249.88 1198.8)" style="font-size:30px;fill:#fff;font-family:ShipporiMinchoB1-ExtraBold, Shippori Mincho B1;font-weight:800">...to my<tspan x="-19.5" y="36">sad days</tspan></text></g></svg>