<svg version="1.1" xmlns="http://www.w3.org/2000/svg" xmlns:xlink="http://www.w3.org/1999/xlink" x="0px" y="0px"
	 viewBox="0 0 375 553.49" enable-background="new 0 0 375 553.49" xml:space="preserve">
<g id="Layer_2">
</g>
<g id="Layer_1">
	<g id="time_15_">
		<g>
			<text transform="matrix(1 0 0 1 6.7012 59.083)" fill="#FFFFFF" font-family="'Open Sans'" font-weight="300" font-size="16px">1</text>
		</g>
	</g>
	<g id="time_14_">
		<g>
			<text transform="matrix(1 0 0 1 6.7012 120.7402)" fill="#FFFFFF" font-family="'Open Sans'" font-weight="300" font-size="16px">2</text>
		</g>
	</g>
	<g id="time_13_">
		<g>
			<text transform="matrix(1 0 0 1 6.7012 182.293)" fill="#FFFFFF" font-family="'Open Sans'" font-weight="300" font-size="16px">3</text>
		</g>
	</g>
	<g id="time_12_">
		<g>
			<text transform="matrix(1 0 0 1 6.7012 243.8457)" fill="#FFFFFF" font-family="'Open Sans'" font-weight="300" font-size="16px">4</text>
		</g>
	</g>
	<g id="time_11_">
		<g>
			<text transform="matrix(1 0 0 1 6.7012 305.3994)" fill="#FFFFFF" font-family="'Open Sans'" font-weight="300" font-size="16px">5</text>
		</g>
	</g>
	<g id="time_10_">
		<g>
			<text transform="matrix(1 0 0 1 6.7012 366.9531)" fill="#FFFFFF" font-family="'Open Sans'" font-weight="300" font-size="16px">6</text>
		</g>
	</g>
	<g id="time_9_">
		<g>
			<text transform="matrix(1 0 0 1 6.7012 427.6801)" fill="#FFFFFF" font-family="'Open Sans'" font-weight="300" font-size="16px">7</text>
		</g>
	</g>
	<g id="time_8_">
		<g>
			<text transform="matrix(1 0 0 1 6.7012 488.5064)" fill="#FFFFFF" font-family="'Open Sans'" font-weight="300" font-size="16px">8</text>
		</g>
	</g>
	<g>
		<text transform="matrix(1 0 0 1 45.7422 40.1289)" fill="#FFFFFF" font-family="'Open Sans'" font-weight="300" font-size="17px">Su</text>
	</g>
	<g>
		<text transform="matrix(1 0 0 1 90.0576 40.1289)" fill="#FFFFFF" font-family="'Open Sans'" font-weight="300" font-size="17px">Mo</text>
	</g>
	<g>
		<text transform="matrix(1 0 0 1 139.8906 40.1289)" fill="#FFFFFF" font-family="'Open Sans'" font-weight="300" font-size="17px">Tu</text>
	</g>
	<g>
		<text transform="matrix(1 0 0 1 184.0938 40.1289)" fill="#FFFFFF" font-family="'Open Sans'" font-weight="300" font-size="17px">We</text>
	</g>
	<g>
		<text transform="matrix(1 0 0 1 236.2627 40.1289)" fill="#FFFFFF" font-family="'Open Sans'" font-weight="300" font-size="17px">Th</text>
	</g>
	<g>
		<text transform="matrix(1 0 0 1 281.8066 40.1289)" fill="#FFFFFF" font-family="'Open Sans'" font-weight="300" font-size="17px">Fr</text>
	</g>
	<g>
		<text transform="matrix(1 0 0 1 327.4893 40.1289)" fill="#FFFFFF" font-family="'Open Sans'" font-weight="300" font-size="17px">Sa</text>
	</g>
	
		<image overflow="visible" width="500" height="667" xlink:href="build/assets/neutral.jpg"  transform="matrix(0.0886 0 0 0.0886 271.157 45.6608)">
	</image>
	<image overflow="visible" width="500" height="667" xlink:href="build/assets/ok.jpg"  transform="matrix(0.0886 0 0 0.0886 224.172 45.6608)">
	</image>
	
		<image overflow="visible" width="500" height="667" xlink:href="build/assets/angry.jpg"  transform="matrix(0.0886 0 0 0.0886 130.202 45.6608)">
	</image>
	<image overflow="visible" width="900" height="1200" xlink:href="build/assets/sad.jpg"  transform="matrix(0.0492 0 0 0.0492 36.232 45.6903)">
	</image>
	<image overflow="visible" width="900" height="1200" xlink:href="build/assets/sad.jpg"  transform="matrix(0.0492 0 0 0.0492 83.217 45.6903)">
	</image>
	
		<image overflow="visible" width="900" height="1200" xlink:href="build/assets/sad.jpg"  transform="matrix(0.0492 0 0 0.0492 177.187 45.6903)">
	</image>
	
		<image overflow="visible" width="900" height="1200" xlink:href="build/assets/sad.jpg"  transform="matrix(0.0492 0 0 0.0492 318.1421 45.6903)">
	</image>
	
		<image overflow="visible" width="900" height="1200" xlink:href="build/assets/sad.jpg"  transform="matrix(0.0492 0 0 0.0492 36.232 107.2434)">
	</image>
	
		<image overflow="visible" width="900" height="1200" xlink:href="build/assets/sad.jpg"  transform="matrix(0.0492 0 0 0.0492 36.232 168.7966)">
	</image>
	
		<image overflow="visible" width="900" height="1200" xlink:href="build/assets/sad.jpg"  transform="matrix(0.0492 0 0 0.0492 36.232 230.3497)">
	</image>
	
		<image overflow="visible" width="900" height="1200" xlink:href="build/assets/sad.jpg"  transform="matrix(0.0492 0 0 0.0492 36.232 291.9028)">
	</image>
	
		<image overflow="visible" width="900" height="1200" xlink:href="build/assets/sad.jpg"  transform="matrix(0.0492 0 0 0.0492 36.232 476.5622)">
	</image>
	
		<image overflow="visible" width="900" height="1200" xlink:href="build/assets/sad.jpg"  transform="matrix(0.0492 0 0 0.0492 318.1421 168.7966)">
	</image>
	
		<image overflow="visible" width="900" height="1200" xlink:href="build/assets/sad.jpg"  transform="matrix(0.0492 0 0 0.0492 271.157 168.7966)">
	</image>
	
		<image overflow="visible" width="900" height="1200" xlink:href="build/assets/sad.jpg"  transform="matrix(0.0492 0 0 0.0492 318.1421 230.3497)">
	</image>
	
		<image overflow="visible" width="900" height="1200" xlink:href="build/assets/sad.jpg"  transform="matrix(0.0492 0 0 0.0492 271.157 230.3497)">
	</image>
	
		<image overflow="visible" width="500" height="667" xlink:href="build/assets/angry.jpg"  transform="matrix(0.0886 0 0 0.0886 177.187 107.2139)">
	</image>
	
		<image overflow="visible" width="500" height="667" xlink:href="build/assets/neutral.jpg"  transform="matrix(0.0886 0 0 0.0886 224.172 107.2139)">
	</image>
	
		<image overflow="visible" width="500" height="667" xlink:href="build/assets/neutral.jpg"  transform="matrix(0.0886 0 0 0.0886 318.1421 107.2139)">
	</image>
	
		<image overflow="visible" width="500" height="667" xlink:href="build/assets/neutral.jpg"  transform="matrix(0.0886 0 0 0.0886 224.172 168.767)">
	</image>
	
		<image overflow="visible" width="500" height="667" xlink:href="build/assets/neutral.jpg"  transform="matrix(0.0886 0 0 0.0886 83.217 168.767)">
	</image>
	
		<image overflow="visible" width="500" height="667" xlink:href="build/assets/neutral.jpg"  transform="matrix(0.0886 0 0 0.0886 83.217 230.3201)">
	</image>
	
		<image overflow="visible" width="500" height="667" xlink:href="build/assets/neutral.jpg"  transform="matrix(0.0886 0 0 0.0886 130.202 230.3201)">
	</image>
	
		<image overflow="visible" width="500" height="667" xlink:href="build/assets/neutral.jpg"  transform="matrix(0.0886 0 0 0.0886 177.187 230.3201)">
	</image>
	
		<image overflow="visible" width="500" height="667" xlink:href="build/assets/neutral.jpg"  transform="matrix(0.0886 0 0 0.0886 224.172 230.3201)">
	</image>
	
		<image overflow="visible" width="500" height="667" xlink:href="build/assets/neutral.jpg"  transform="matrix(0.0886 0 0 0.0886 130.202 291.8733)">
	</image>
	
		<image overflow="visible" width="500" height="667" xlink:href="build/assets/neutral.jpg"  transform="matrix(0.0886 0 0 0.0886 177.187 291.8733)">
	</image>
	
		<image overflow="visible" width="500" height="667" xlink:href="build/assets/neutral.jpg"  transform="matrix(0.0886 0 0 0.0886 224.172 291.8733)">
	</image>
	
		<image overflow="visible" width="500" height="667" xlink:href="build/assets/neutral.jpg"  transform="matrix(0.0886 0 0 0.0886 271.157 291.8733)">
	</image>
	<image overflow="visible" width="500" height="667" xlink:href="build/assets/ok.jpg"  transform="matrix(0.0886 0 0 0.0886 177.187 168.767)">
	</image>
	<image overflow="visible" width="500" height="667" xlink:href="build/assets/ok.jpg"  transform="matrix(0.0886 0 0 0.0886 130.202 168.767)">
	</image>
	<image overflow="visible" width="500" height="667" xlink:href="build/assets/ok.jpg"  transform="matrix(0.0886 0 0 0.0886 83.217 291.8733)">
	</image>
	<image overflow="visible" width="500" height="667" xlink:href="build/assets/ok.jpg"  transform="matrix(0.0886 0 0 0.0886 83.217 414.9795)">
	</image>
	<image overflow="visible" width="500" height="667" xlink:href="build/assets/ok.jpg"  transform="matrix(0.0886 0 0 0.0886 130.202 414.9795)">
	</image>
	<image overflow="visible" width="500" height="667" xlink:href="build/assets/ok.jpg"  transform="matrix(0.0886 0 0 0.0886 177.187 414.9795)">
	</image>
	<image overflow="visible" width="500" height="667" xlink:href="build/assets/ok.jpg"  transform="matrix(0.0886 0 0 0.0886 224.172 414.9795)">
	</image>
	<image overflow="visible" width="500" height="667" xlink:href="build/assets/ok.jpg"  transform="matrix(0.0886 0 0 0.0886 271.157 414.9795)">
	</image>
	
		<image overflow="visible" width="900" height="1200" xlink:href="build/assets/happy.jpg"  transform="matrix(0.0492 0 0 0.0492 83.217 107.2434)">
	</image>
	
		<image overflow="visible" width="900" height="1200" xlink:href="build/assets/happy.jpg"  transform="matrix(0.0492 0 0 0.0492 130.202 107.2434)">
	</image>
	
		<image overflow="visible" width="900" height="1200" xlink:href="build/assets/happy.jpg"  transform="matrix(0.0492 0 0 0.0492 271.157 107.2434)">
	</image>
	
		<image overflow="visible" width="900" height="1200" xlink:href="build/assets/happy.jpg"  transform="matrix(0.0492 0 0 0.0492 318.1421 291.9028)">
	</image>
	
		<image overflow="visible" width="900" height="1200" xlink:href="build/assets/happy.jpg"  transform="matrix(0.0492 0 0 0.0492 36.232 353.4559)">
	</image>
	
		<image overflow="visible" width="900" height="1200" xlink:href="build/assets/happy.jpg"  transform="matrix(0.0492 0 0 0.0492 83.217 353.4559)">
	</image>
	
		<image overflow="visible" width="900" height="1200" xlink:href="build/assets/happy.jpg"  transform="matrix(0.0492 0 0 0.0492 130.202 353.4559)">
	</image>
	
		<image overflow="visible" width="900" height="1200" xlink:href="build/assets/happy.jpg"  transform="matrix(0.0492 0 0 0.0492 177.187 353.4559)">
	</image>
	
		<image overflow="visible" width="900" height="1200" xlink:href="build/assets/happy.jpg"  transform="matrix(0.0492 0 0 0.0492 224.172 353.4559)">
	</image>
	
		<image overflow="visible" width="900" height="1200" xlink:href="build/assets/happy.jpg"  transform="matrix(0.0492 0 0 0.0492 271.157 353.4559)">
	</image>
	
		<image overflow="visible" width="900" height="1200" xlink:href="build/assets/happy.jpg"  transform="matrix(0.0492 0 0 0.0492 318.1421 353.4559)">
	</image>
	
		<image overflow="visible" width="900" height="1200" xlink:href="build/assets/happy.jpg"  transform="matrix(0.0492 0 0 0.0492 36.232 415.009)">
	</image>
	
		<image overflow="visible" width="900" height="1200" xlink:href="build/assets/happy.jpg"  transform="matrix(0.0492 0 0 0.0492 318.1421 415.009)">
	</image>
	
		<rect x="271.84" y="169.44" fill="none" stroke="#FFFFFF" stroke-width="2" stroke-miterlimit="10" width="89.68" height="119.43"/>
	<polygon fill="none" stroke="#FFFFFF" stroke-width="2" stroke-miterlimit="10" points="362.44,412.52 36.23,412.52 36.41,353.46 
		362.62,353.46 	"/>
	<rect x="36.23" y="291.9" fill="none" stroke="#FFFFFF" stroke-width="2" stroke-miterlimit="10" width="44.3" height="59.06"/>
	<g id="annotation-1_1_">
		<text transform="matrix(1 0 0 1 276.707 216.4143)"><tspan x="0" y="0" fill="#FFFFFF" font-family="'Open Sans'" font-weight="700" font-size="16px">Weekends  </tspan><tspan x="0" y="17" fill="#FFFFFF" font-family="'Open Sans'" font-weight="300" font-size="16px">studying  </tspan><tspan x="0" y="34" fill="#FFFFFF" font-family="'Open Sans'" font-weight="700" font-size="16px">alone</tspan><tspan x="44.42" y="34" fill="#FFFFFF" font-family="'Open Sans'" font-weight="300" font-size="16px">, no </tspan><tspan x="0" y="51" fill="#FFFFFF" font-family="'Open Sans'" font-weight="300" font-size="16px">family time.</tspan></text>
	</g>
	<path opacity="0.2" fill="#100532" d="M321.55,398.79H76.4c-3.3,0-6-2.7-6-6v-8.08c0-3.3,2.7-6,6-6h245.15c3.3,0,6,2.7,6,6v8.08
		C327.55,396.09,324.85,398.79,321.55,398.79z"/>
	<g id="annotation-2_1_">
		<g>
			<text transform="matrix(1 0 0 1 73.3651 393.3452)"><tspan x="0" y="0" fill="#FFFFFF" font-family="'Open Sans'" font-weight="700" font-size="16px">Sebi&apos;s birthday party. </tspan><tspan x="174.24" y="0" fill="#FFFFFF" font-family="'Open Sans'" font-weight="300" font-size="16px">Fun times!</tspan></text>
		</g>
	</g>
	<text transform="matrix(1 0 0 1 3.777 73.4825)" fill="#FFFFFF" font-family="'Open Sans'" font-weight="300" font-size="14px">week </text>
</g>
</svg>
