<?xml version="1.0" encoding="utf-8"?>
<!-- Generator: Adobe Illustrator 25.2.0, SVG Export Plug-In . SVG Version: 6.00 Build 0)  -->
<svg version="1.1" xmlns="http://www.w3.org/2000/svg" xmlns:xlink="http://www.w3.org/1999/xlink" x="0px" y="0px"
	 viewBox="0 0 700 879.88" enable-background="new 0 0 700 879.88" xml:space="preserve">
<g id="Layer_2">
</g>
<g id="Layer_1">
	<g id="time">
		<g>
			<text transform="matrix(1 0 0 1 4.426 46.8589)"><tspan x="0" y="0" fill="#FFFFFF" font-family="'Open Sans'" font-weight="300" font-size="15px">week  </tspan><tspan x="0" y="18" fill="#FFFFFF" font-family="'Open Sans'" font-weight="300" font-size="15px">1</tspan></text>
		</g>
	</g>
	<g id="time_1_">
		<g>
			<text transform="matrix(1 0 0 1 4.426 151.0779)" fill="#FFFFFF" font-family="'Open Sans'" font-weight="300" font-size="15px">2</text>
		</g>
	</g>
	<g id="time_2_">
		<g>
			<text transform="matrix(1 0 0 1 4.426 255.2968)" fill="#FFFFFF" font-family="'Open Sans'" font-weight="300" font-size="15px">3</text>
		</g>
	</g>
	<g id="time_3_">
		<g>
			<text transform="matrix(1 0 0 1 4.426 359.5158)" fill="#FFFFFF" font-family="'Open Sans'" font-weight="300" font-size="15px">4</text>
		</g>
	</g>
	<g id="time_4_">
		<g>
			<text transform="matrix(1 0 0 1 4.426 463.7347)" fill="#FFFFFF" font-family="'Open Sans'" font-weight="300" font-size="15px">5</text>
		</g>
	</g>
	<g id="time_5_">
		<g>
			<text transform="matrix(1 0 0 1 4.426 567.9537)" fill="#FFFFFF" font-family="'Open Sans'" font-weight="300" font-size="15px">6</text>
		</g>
	</g>
	<g id="time_6_">
		<g>
			<text transform="matrix(1 0 0 1 4.426 672.1727)" fill="#FFFFFF" font-family="'Open Sans'" font-weight="300" font-size="15px">7</text>
		</g>
	</g>
	<g id="time_7_">
		<g>
			<text transform="matrix(1 0 0 1 4.426 776.3917)" fill="#FFFFFF" font-family="'Open Sans'" font-weight="300" font-size="15px">8</text>
		</g>
	</g>
	<g id="annotation-1">
		<text transform="matrix(1 0 0 1 617.0161 356.6067)"><tspan x="0" y="0" fill="#FFFFFF" font-family="'Open Sans'" font-weight="700" font-size="15px">Weekends  </tspan><tspan x="0" y="19" fill="#FFFFFF" font-family="'Open Sans'" font-weight="300" font-size="15px">studying  </tspan><tspan x="0" y="38" fill="#FFFFFF" font-family="'Open Sans'" font-weight="700" font-size="15px">alone</tspan><tspan x="41.65" y="38" fill="#FFFFFF" font-family="'Open Sans'" font-weight="300" font-size="15px">, no </tspan><tspan x="0" y="57" fill="#FFFFFF" font-family="'Open Sans'" font-weight="300" font-size="15px">family time.</tspan></text>
	</g>
	<g id="annotation-2">
		<g>
			<text transform="matrix(1 0 0 1 618.0161 595.7432)"><tspan x="0" y="0" fill="#FFFFFF" font-family="'Open Sans'" font-weight="700" font-size="15px">Sebi&apos;s  </tspan><tspan x="0" y="19" fill="#FFFFFF" font-family="'Open Sans'" font-weight="700" font-size="15px">birthday  </tspan><tspan x="0" y="38" fill="#FFFFFF" font-family="'Open Sans'" font-weight="700" font-size="15px">party.  </tspan><tspan x="0" y="57" fill="#FFFFFF" font-family="'Open Sans'" font-weight="300" font-size="15px">Fun times!</tspan></text>
		</g>
	</g>
	<g>
		<text transform="matrix(1 0 0 1 73.9248 28.1367)" fill="#FFFFFF" font-family="'Open Sans'" font-weight="300" font-size="15px">Sun</text>
	</g>
	<g>
		<text transform="matrix(1 0 0 1 151.1229 28.1367)" fill="#FFFFFF" font-family="'Open Sans'" font-weight="300" font-size="15px">Mon</text>
	</g>
	<g>
		<text transform="matrix(1 0 0 1 230.0021 28.1367)" fill="#FFFFFF" font-family="'Open Sans'" font-weight="300" font-size="15px">Tues</text>
	</g>
	<g>
		<text transform="matrix(1 0 0 1 310.2465 28.1367)" fill="#FFFFFF" font-family="'Open Sans'" font-weight="300" font-size="15px">Wed</text>
	</g>
	<g>
		<text transform="matrix(1 0 0 1 384.8691 28.1367)" fill="#FFFFFF" font-family="'Open Sans'" font-weight="300" font-size="15px">Thurs</text>
	</g>
	<g>
		<text transform="matrix(1 0 0 1 474.6687 28.1367)" fill="#FFFFFF" font-family="'Open Sans'" font-weight="300" font-size="15px">Fri</text>
	</g>
	<g>
		<text transform="matrix(1 0 0 1 552.4644 28.1367)" fill="#FFFFFF" font-family="'Open Sans'" font-weight="300" font-size="15px">Sat</text>
	</g>
	
		<image overflow="visible" width="500" height="667" xlink:href="build/assets/neutral.jpg"  transform="matrix(0.15 0 0 0.15 452.1905 35.8089)">
	</image>
	<image overflow="visible" width="500" height="667" xlink:href="build/assets/ok.jpg"  transform="matrix(0.15 0 0 0.15 372.6376 35.8089)">
	</image>
	<image overflow="visible" width="500" height="667" xlink:href="build/assets/angry.jpg"  transform="matrix(0.15 0 0 0.15 213.5318 35.8089)">
	</image>
	<image overflow="visible" width="900" height="1200" xlink:href="build/assets/sad.jpg"  transform="matrix(0.0833 0 0 0.0833 54.426 35.8589)">
	</image>
	
		<image overflow="visible" width="900" height="1200" xlink:href="build/assets/sad.jpg"  transform="matrix(0.0833 0 0 0.0833 133.9789 35.8589)">
	</image>
	
		<image overflow="visible" width="900" height="1200" xlink:href="build/assets/sad.jpg"  transform="matrix(0.0833 0 0 0.0833 293.0847 35.8589)">
	</image>
	
		<image overflow="visible" width="900" height="1200" xlink:href="build/assets/sad.jpg"  transform="matrix(0.0833 0 0 0.0833 531.7433 35.8589)">
	</image>
	
		<image overflow="visible" width="900" height="1200" xlink:href="build/assets/sad.jpg"  transform="matrix(0.0833 0 0 0.0833 54.426 140.0779)">
	</image>
	
		<image overflow="visible" width="900" height="1200" xlink:href="build/assets/sad.jpg"  transform="matrix(0.0833 0 0 0.0833 54.426 244.2968)">
	</image>
	
		<image overflow="visible" width="900" height="1200" xlink:href="build/assets/sad.jpg"  transform="matrix(0.0833 0 0 0.0833 54.426 348.5158)">
	</image>
	
		<image overflow="visible" width="900" height="1200" xlink:href="build/assets/sad.jpg"  transform="matrix(0.0833 0 0 0.0833 54.426 452.7347)">
	</image>
	
		<image overflow="visible" width="900" height="1200" xlink:href="build/assets/sad.jpg"  transform="matrix(0.0833 0 0 0.0833 54.426 765.3917)">
	</image>
	
		<image overflow="visible" width="900" height="1200" xlink:href="build/assets/sad.jpg"  transform="matrix(0.0833 0 0 0.0833 531.7433 244.2968)">
	</image>
	
		<image overflow="visible" width="900" height="1200" xlink:href="build/assets/sad.jpg"  transform="matrix(0.0833 0 0 0.0833 452.1905 244.2968)">
	</image>
	
		<image overflow="visible" width="900" height="1200" xlink:href="build/assets/sad.jpg"  transform="matrix(0.0833 0 0 0.0833 531.7433 348.5158)">
	</image>
	
		<image overflow="visible" width="900" height="1200" xlink:href="build/assets/sad.jpg"  transform="matrix(0.0833 0 0 0.0833 452.1905 348.5158)">
	</image>
	<image overflow="visible" width="500" height="667" xlink:href="build/assets/angry.jpg"  transform="matrix(0.15 0 0 0.15 293.0847 140.0278)">
	</image>
	
		<image overflow="visible" width="500" height="667" xlink:href="build/assets/neutral.jpg"  transform="matrix(0.15 0 0 0.15 372.6376 140.0278)">
	</image>
	
		<image overflow="visible" width="500" height="667" xlink:href="build/assets/neutral.jpg"  transform="matrix(0.15 0 0 0.15 531.7433 140.0278)">
	</image>
	
		<image overflow="visible" width="500" height="667" xlink:href="build/assets/neutral.jpg"  transform="matrix(0.15 0 0 0.15 372.6376 244.2468)">
	</image>
	
		<image overflow="visible" width="500" height="667" xlink:href="build/assets/neutral.jpg"  transform="matrix(0.15 0 0 0.15 133.9789 244.2468)">
	</image>
	
		<image overflow="visible" width="500" height="667" xlink:href="build/assets/neutral.jpg"  transform="matrix(0.15 0 0 0.15 133.9789 348.4658)">
	</image>
	
		<image overflow="visible" width="500" height="667" xlink:href="build/assets/neutral.jpg"  transform="matrix(0.15 0 0 0.15 213.5318 348.4658)">
	</image>
	
		<image overflow="visible" width="500" height="667" xlink:href="build/assets/neutral.jpg"  transform="matrix(0.15 0 0 0.15 293.0847 348.4658)">
	</image>
	
		<image overflow="visible" width="500" height="667" xlink:href="build/assets/neutral.jpg"  transform="matrix(0.15 0 0 0.15 372.6376 348.4658)">
	</image>
	
		<image overflow="visible" width="500" height="667" xlink:href="build/assets/neutral.jpg"  transform="matrix(0.15 0 0 0.15 213.5318 452.6848)">
	</image>
	
		<image overflow="visible" width="500" height="667" xlink:href="build/assets/neutral.jpg"  transform="matrix(0.15 0 0 0.15 293.0847 452.6848)">
	</image>
	
		<image overflow="visible" width="500" height="667" xlink:href="build/assets/neutral.jpg"  transform="matrix(0.15 0 0 0.15 372.6376 452.6848)">
	</image>
	
		<image overflow="visible" width="500" height="667" xlink:href="build/assets/neutral.jpg"  transform="matrix(0.15 0 0 0.15 452.1905 452.6848)">
	</image>
	<image overflow="visible" width="500" height="667" xlink:href="build/assets/ok.jpg"  transform="matrix(0.15 0 0 0.15 293.0847 244.2468)">
	</image>
	<image overflow="visible" width="500" height="667" xlink:href="build/assets/ok.jpg"  transform="matrix(0.15 0 0 0.15 213.5318 244.2468)">
	</image>
	<image overflow="visible" width="500" height="667" xlink:href="build/assets/ok.jpg"  transform="matrix(0.15 0 0 0.15 133.9789 452.6848)">
	</image>
	<image overflow="visible" width="500" height="667" xlink:href="build/assets/ok.jpg"  transform="matrix(0.15 0 0 0.15 133.9789 661.1227)">
	</image>
	<image overflow="visible" width="500" height="667" xlink:href="build/assets/ok.jpg"  transform="matrix(0.15 0 0 0.15 213.5318 661.1227)">
	</image>
	<image overflow="visible" width="500" height="667" xlink:href="build/assets/ok.jpg"  transform="matrix(0.15 0 0 0.15 293.0847 661.1227)">
	</image>
	<image overflow="visible" width="500" height="667" xlink:href="build/assets/ok.jpg"  transform="matrix(0.15 0 0 0.15 372.6376 661.1227)">
	</image>
	<image overflow="visible" width="500" height="667" xlink:href="build/assets/ok.jpg"  transform="matrix(0.15 0 0 0.15 452.1905 661.1227)">
	</image>
	
		<image overflow="visible" width="900" height="1200" xlink:href="build/assets/happy.jpg"  transform="matrix(0.0833 0 0 0.0833 133.9789 140.0779)">
	</image>
	
		<image overflow="visible" width="900" height="1200" xlink:href="build/assets/happy.jpg"  transform="matrix(0.0833 0 0 0.0833 213.5318 140.0779)">
	</image>
	
		<image overflow="visible" width="900" height="1200" xlink:href="build/assets/happy.jpg"  transform="matrix(0.0833 0 0 0.0833 452.1905 140.0779)">
	</image>
	
		<image overflow="visible" width="900" height="1200" xlink:href="build/assets/happy.jpg"  transform="matrix(0.0833 0 0 0.0833 531.7433 452.7347)">
	</image>
	
		<image overflow="visible" width="900" height="1200" xlink:href="build/assets/happy.jpg"  transform="matrix(0.0833 0 0 0.0833 54.426 556.9537)">
	</image>
	
		<image overflow="visible" width="900" height="1200" xlink:href="build/assets/happy.jpg"  transform="matrix(0.0833 0 0 0.0833 133.9789 556.9537)">
	</image>
	
		<image overflow="visible" width="900" height="1200" xlink:href="build/assets/happy.jpg"  transform="matrix(0.0833 0 0 0.0833 213.5318 556.9537)">
	</image>
	
		<image overflow="visible" width="900" height="1200" xlink:href="build/assets/happy.jpg"  transform="matrix(0.0833 0 0 0.0833 293.0847 556.9537)">
	</image>
	
		<image overflow="visible" width="900" height="1200" xlink:href="build/assets/happy.jpg"  transform="matrix(0.0833 0 0 0.0833 372.6376 556.9537)">
	</image>
	
		<image overflow="visible" width="900" height="1200" xlink:href="build/assets/happy.jpg"  transform="matrix(0.0833 0 0 0.0833 452.1905 556.9537)">
	</image>
	
		<image overflow="visible" width="900" height="1200" xlink:href="build/assets/happy.jpg"  transform="matrix(0.0833 0 0 0.0833 531.7433 556.9537)">
	</image>
	
		<image overflow="visible" width="900" height="1200" xlink:href="build/assets/happy.jpg"  transform="matrix(0.0833 0 0 0.0833 54.426 661.1727)">
	</image>
	
		<image overflow="visible" width="900" height="1200" xlink:href="build/assets/happy.jpg"  transform="matrix(0.0833 0 0 0.0833 531.7433 661.1727)">
	</image>
	
		<rect x="453.34" y="245.39" fill="none" stroke="#FFFFFF" stroke-width="2" stroke-miterlimit="10" width="151.85" height="202.22"/>
	<polygon fill="none" stroke="#FFFFFF" stroke-width="2" stroke-miterlimit="10" points="606.74,656.95 54.43,656.95 54.73,556.95 
		607.05,556.95 	"/>
	<g>
		<g>
			<path fill="none" stroke="#FFFFFF" stroke-miterlimit="10" d="M578.62,319.52c20.09-21.87,55.15-6.82,57.33,17.14"/>
			<g>
				<polygon fill="#FFFFFF" points="586.54,320.33 586.47,318.83 579.08,319.18 579.28,311.78 577.78,311.74 577.54,320.75 				"/>
			</g>
		</g>
	</g>
	<g>
		<g>
			<path fill="none" stroke="#FFFFFF" stroke-miterlimit="10" d="M584.06,582.64c13.35-16.48,36.29-15.42,42.03-4.69"/>
			<g>
				<polygon fill="#FFFFFF" points="592.02,583.03 591.87,581.53 584.51,582.28 584.31,574.88 582.8,574.93 583.06,583.93 				"/>
			</g>
		</g>
	</g>
	<rect x="54.43" y="452.73" fill="none" stroke="#FFFFFF" stroke-width="2" stroke-miterlimit="10" width="75" height="100"/>
</g>
</svg>
