<?xml version="1.0" encoding="utf-8"?>
<!-- Generator: Adobe Illustrator 25.2.0, SVG Export Plug-In . SVG Version: 6.00 Build 0)  -->
<svg version="1.1" xmlns="http://www.w3.org/2000/svg" xmlns:xlink="http://www.w3.org/1999/xlink" x="0px" y="0px"
	 viewBox="0 0 375 553.49" enable-background="new 0 0 375 553.49" xml:space="preserve">
<g id="Layer_2">
</g>
<g id="Layer_1">
	<g id="time_15_">
		<g>
			<text transform="matrix(1 0 0 1 6.7012 41.1289)"><tspan x="0" y="0" fill="#FFFFFF" font-family="'Open Sans'" font-weight="300" font-size="14px"> </tspan><tspan x="0" y="16.8" fill="#FFFFFF" font-family="'Open Sans'" font-weight="300" font-size="14px">1</tspan></text>
		</g>
	</g>
	<g id="time_14_">
		<g>
			<text transform="matrix(1 0 0 1 6.7012 120.7402)" fill="#FFFFFF" font-family="'Open Sans'" font-weight="300" font-size="14px">2</text>
		</g>
	</g>
	<g id="time_13_">
		<g>
			<text transform="matrix(1 0 0 1 6.7012 182.293)" fill="#FFFFFF" font-family="'Open Sans'" font-weight="300" font-size="14px">3</text>
		</g>
	</g>
	<g id="time_12_">
		<g>
			<text transform="matrix(1 0 0 1 6.7012 243.8457)" fill="#FFFFFF" font-family="'Open Sans'" font-weight="300" font-size="14px">4</text>
		</g>
	</g>
	<g id="time_11_">
		<g>
			<text transform="matrix(1 0 0 1 6.7012 305.3994)" fill="#FFFFFF" font-family="'Open Sans'" font-weight="300" font-size="14px">5</text>
		</g>
	</g>
	<g id="time_10_">
		<g>
			<text transform="matrix(1 0 0 1 6.7012 366.9531)" fill="#FFFFFF" font-family="'Open Sans'" font-weight="300" font-size="14px">6</text>
		</g>
	</g>
	<g id="time_9_">
		<g>
			<text transform="matrix(1 0 0 1 6.7012 427.6801)" fill="#FFFFFF" font-family="'Open Sans'" font-weight="300" font-size="14px">7</text>
		</g>
	</g>
	<g id="time_8_">
		<g>
			<text transform="matrix(1 0 0 1 6.7012 488.5064)" fill="#FFFFFF" font-family="'Open Sans'" font-weight="300" font-size="14px">8</text>
		</g>
	</g>
	<g>
		<text transform="matrix(1 0 0 1 46.877 41.1289)" fill="#FFFFFF" font-family="'Open Sans'" font-weight="300" font-size="15px">Su</text>
	</g>
	<g>
		<text transform="matrix(1 0 0 1 91.5068 41.1289)" fill="#FFFFFF" font-family="'Open Sans'" font-weight="300" font-size="15px">Mo</text>
	</g>
	<g>
		<text transform="matrix(1 0 0 1 141.0039 41.1289)" fill="#FFFFFF" font-family="'Open Sans'" font-weight="300" font-size="15px">Tu</text>
	</g>
	<g>
		<text transform="matrix(1 0 0 1 185.5352 41.1289)" fill="#FFFFFF" font-family="'Open Sans'" font-weight="300" font-size="15px">We</text>
	</g>
	<g>
		<text transform="matrix(1 0 0 1 237.376 41.1289)" fill="#FFFFFF" font-family="'Open Sans'" font-weight="300" font-size="15px">Th</text>
	</g>
	<g>
		<text transform="matrix(1 0 0 1 282.6973 41.1289)" fill="#FFFFFF" font-family="'Open Sans'" font-weight="300" font-size="15px">Fr</text>
	</g>
	<g>
		<text transform="matrix(1 0 0 1 328.5635 41.1289)" fill="#FFFFFF" font-family="'Open Sans'" font-weight="300" font-size="15px">Sa</text>
	</g>
	
		<image overflow="visible" width="500" height="667" xlink:href="build/assets/neutral.jpg"  transform="matrix(0.0886 0 0 0.0886 271.157 45.6608)">
	</image>
	<image overflow="visible" width="500" height="667" xlink:href="build/assets/ok.jpg"  transform="matrix(0.0886 0 0 0.0886 224.172 45.6608)">
	</image>
	
		<image overflow="visible" width="500" height="667" xlink:href="build/assets/angry.jpg"  transform="matrix(0.0886 0 0 0.0886 130.202 45.6608)">
	</image>
	<image overflow="visible" width="900" height="1200" xlink:href="build/assets/sad.jpg"  transform="matrix(0.0492 0 0 0.0492 36.232 45.6903)">
	</image>
	<image overflow="visible" width="900" height="1200" xlink:href="build/assets/sad.jpg"  transform="matrix(0.0492 0 0 0.0492 83.217 45.6903)">
	</image>
	
		<image overflow="visible" width="900" height="1200" xlink:href="build/assets/sad.jpg"  transform="matrix(0.0492 0 0 0.0492 177.187 45.6903)">
	</image>
	
		<image overflow="visible" width="900" height="1200" xlink:href="build/assets/sad.jpg"  transform="matrix(0.0492 0 0 0.0492 318.1421 45.6903)">
	</image>
	
		<image overflow="visible" width="900" height="1200" xlink:href="build/assets/sad.jpg"  transform="matrix(0.0492 0 0 0.0492 36.232 107.2434)">
	</image>
	
		<image overflow="visible" width="900" height="1200" xlink:href="build/assets/sad.jpg"  transform="matrix(0.0492 0 0 0.0492 36.232 168.7966)">
	</image>
	
		<image overflow="visible" width="900" height="1200" xlink:href="build/assets/sad.jpg"  transform="matrix(0.0492 0 0 0.0492 36.232 230.3497)">
	</image>
	
		<image overflow="visible" width="900" height="1200" xlink:href="build/assets/sad.jpg"  transform="matrix(0.0492 0 0 0.0492 36.232 291.9028)">
	</image>
	
		<image overflow="visible" width="900" height="1200" xlink:href="build/assets/sad.jpg"  transform="matrix(0.0492 0 0 0.0492 36.232 476.5622)">
	</image>
	
		<image overflow="visible" width="900" height="1200" xlink:href="build/assets/sad.jpg"  transform="matrix(0.0492 0 0 0.0492 318.1421 168.7966)">
	</image>
	
		<image overflow="visible" width="900" height="1200" xlink:href="build/assets/sad.jpg"  transform="matrix(0.0492 0 0 0.0492 271.157 168.7966)">
	</image>
	
		<image overflow="visible" width="900" height="1200" xlink:href="build/assets/sad.jpg"  transform="matrix(0.0492 0 0 0.0492 318.1421 230.3497)">
	</image>
	
		<image overflow="visible" width="900" height="1200" xlink:href="build/assets/sad.jpg"  transform="matrix(0.0492 0 0 0.0492 271.157 230.3497)">
	</image>
	
		<image overflow="visible" width="500" height="667" xlink:href="build/assets/angry.jpg"  transform="matrix(0.0886 0 0 0.0886 177.187 107.2139)">
	</image>
	
		<image overflow="visible" width="500" height="667" xlink:href="build/assets/neutral.jpg"  transform="matrix(0.0886 0 0 0.0886 224.172 107.2139)">
	</image>
	
		<image overflow="visible" width="500" height="667" xlink:href="build/assets/neutral.jpg"  transform="matrix(0.0886 0 0 0.0886 318.1421 107.2139)">
	</image>
	
		<image overflow="visible" width="500" height="667" xlink:href="build/assets/neutral.jpg"  transform="matrix(0.0886 0 0 0.0886 224.172 168.767)">
	</image>
	
		<image overflow="visible" width="500" height="667" xlink:href="build/assets/neutral.jpg"  transform="matrix(0.0886 0 0 0.0886 83.217 168.767)">
	</image>
	
		<image overflow="visible" width="500" height="667" xlink:href="build/assets/neutral.jpg"  transform="matrix(0.0886 0 0 0.0886 83.217 230.3201)">
	</image>
	
		<image overflow="visible" width="500" height="667" xlink:href="build/assets/neutral.jpg"  transform="matrix(0.0886 0 0 0.0886 130.202 230.3201)">
	</image>
	
		<image overflow="visible" width="500" height="667" xlink:href="build/assets/neutral.jpg"  transform="matrix(0.0886 0 0 0.0886 177.187 230.3201)">
	</image>
	
		<image overflow="visible" width="500" height="667" xlink:href="build/assets/neutral.jpg"  transform="matrix(0.0886 0 0 0.0886 224.172 230.3201)">
	</image>
	
		<image overflow="visible" width="500" height="667" xlink:href="build/assets/neutral.jpg"  transform="matrix(0.0886 0 0 0.0886 130.202 291.8733)">
	</image>
	
		<image overflow="visible" width="500" height="667" xlink:href="build/assets/neutral.jpg"  transform="matrix(0.0886 0 0 0.0886 177.187 291.8733)">
	</image>
	
		<image overflow="visible" width="500" height="667" xlink:href="build/assets/neutral.jpg"  transform="matrix(0.0886 0 0 0.0886 224.172 291.8733)">
	</image>
	
		<image overflow="visible" width="500" height="667" xlink:href="build/assets/neutral.jpg"  transform="matrix(0.0886 0 0 0.0886 271.157 291.8733)">
	</image>
	<image overflow="visible" width="500" height="667" xlink:href="build/assets/ok.jpg"  transform="matrix(0.0886 0 0 0.0886 177.187 168.767)">
	</image>
	<image overflow="visible" width="500" height="667" xlink:href="build/assets/ok.jpg"  transform="matrix(0.0886 0 0 0.0886 130.202 168.767)">
	</image>
	<image overflow="visible" width="500" height="667" xlink:href="build/assets/ok.jpg"  transform="matrix(0.0886 0 0 0.0886 83.217 291.8733)">
	</image>
	<image overflow="visible" width="500" height="667" xlink:href="build/assets/ok.jpg"  transform="matrix(0.0886 0 0 0.0886 83.217 414.9795)">
	</image>
	<image overflow="visible" width="500" height="667" xlink:href="build/assets/ok.jpg"  transform="matrix(0.0886 0 0 0.0886 130.202 414.9795)">
	</image>
	<image overflow="visible" width="500" height="667" xlink:href="build/assets/ok.jpg"  transform="matrix(0.0886 0 0 0.0886 177.187 414.9795)">
	</image>
	<image overflow="visible" width="500" height="667" xlink:href="build/assets/ok.jpg"  transform="matrix(0.0886 0 0 0.0886 224.172 414.9795)">
	</image>
	<image overflow="visible" width="500" height="667" xlink:href="build/assets/ok.jpg"  transform="matrix(0.0886 0 0 0.0886 271.157 414.9795)">
	</image>
	
		<image overflow="visible" width="900" height="1200" xlink:href="build/assets/happy.jpg"  transform="matrix(0.0492 0 0 0.0492 83.217 107.2434)">
	</image>
	
		<image overflow="visible" width="900" height="1200" xlink:href="build/assets/happy.jpg"  transform="matrix(0.0492 0 0 0.0492 130.202 107.2434)">
	</image>
	
		<image overflow="visible" width="900" height="1200" xlink:href="build/assets/happy.jpg"  transform="matrix(0.0492 0 0 0.0492 271.157 107.2434)">
	</image>
	
		<image overflow="visible" width="900" height="1200" xlink:href="build/assets/happy.jpg"  transform="matrix(0.0492 0 0 0.0492 318.1421 291.9028)">
	</image>
	
		<image overflow="visible" width="900" height="1200" xlink:href="build/assets/happy.jpg"  transform="matrix(0.0492 0 0 0.0492 36.232 353.4559)">
	</image>
	
		<image overflow="visible" width="900" height="1200" xlink:href="build/assets/happy.jpg"  transform="matrix(0.0492 0 0 0.0492 83.217 353.4559)">
	</image>
	
		<image overflow="visible" width="900" height="1200" xlink:href="build/assets/happy.jpg"  transform="matrix(0.0492 0 0 0.0492 130.202 353.4559)">
	</image>
	
		<image overflow="visible" width="900" height="1200" xlink:href="build/assets/happy.jpg"  transform="matrix(0.0492 0 0 0.0492 177.187 353.4559)">
	</image>
	
		<image overflow="visible" width="900" height="1200" xlink:href="build/assets/happy.jpg"  transform="matrix(0.0492 0 0 0.0492 224.172 353.4559)">
	</image>
	
		<image overflow="visible" width="900" height="1200" xlink:href="build/assets/happy.jpg"  transform="matrix(0.0492 0 0 0.0492 271.157 353.4559)">
	</image>
	
		<image overflow="visible" width="900" height="1200" xlink:href="build/assets/happy.jpg"  transform="matrix(0.0492 0 0 0.0492 318.1421 353.4559)">
	</image>
	
		<image overflow="visible" width="900" height="1200" xlink:href="build/assets/happy.jpg"  transform="matrix(0.0492 0 0 0.0492 36.232 415.009)">
	</image>
	
		<image overflow="visible" width="900" height="1200" xlink:href="build/assets/happy.jpg"  transform="matrix(0.0492 0 0 0.0492 318.1421 415.009)">
	</image>
	
		<rect x="271.84" y="169.44" fill="none" stroke="#FFFFFF" stroke-width="2" stroke-miterlimit="10" width="89.68" height="119.43"/>
	<polygon fill="none" stroke="#FFFFFF" stroke-width="2" stroke-miterlimit="10" points="362.44,412.52 36.23,412.52 36.41,353.46 
		362.62,353.46 	"/>
	<rect x="36.23" y="291.9" fill="none" stroke="#FFFFFF" stroke-width="2" stroke-miterlimit="10" width="44.3" height="59.06"/>
	<g id="annotation-1_1_">
		<text transform="matrix(1 0 0 1 283.707 212.3496)"><tspan x="0" y="0" fill="#FFFFFF" font-family="'Open Sans'" font-weight="700" font-size="13px">Weekends  </tspan><tspan x="0" y="14" fill="#FFFFFF" font-family="'Open Sans'" font-weight="300" font-size="13px">studying  </tspan><tspan x="0" y="28" fill="#FFFFFF" font-family="'Open Sans'" font-weight="700" font-size="13px">alone</tspan><tspan x="36.09" y="28" fill="#FFFFFF" font-family="'Open Sans'" font-weight="300" font-size="13px">, no </tspan><tspan x="0" y="42" fill="#FFFFFF" font-family="'Open Sans'" font-weight="300" font-size="13px">family time.</tspan></text>
	</g>
	<g id="annotation-2_1_">
		<g>
			<text transform="matrix(1 0 0 1 105.3651 394.3452)"><tspan x="0" y="0" fill="#FFFFFF" font-family="'Open Sans'" font-weight="700" font-size="13px">Sebi&apos;s birthday party. </tspan><tspan x="141.57" y="0" fill="#FFFFFF" font-family="'Open Sans'" font-weight="300" font-size="13px">Fun times!</tspan></text>
		</g>
	</g>
	<text transform="matrix(1 0 0 1 18.5458 58.1346)" fill="#FFFFFF" font-family="'Open Sans'" font-weight="300" font-size="14px">week </text>
</g>
</svg>
